<svg xmlns="http://www.w3.org/2000/svg" viewBox="0 0 64 64">
  <path data-part="id-card" d="M7 6h45a5 5 0 0 1 5 5v40a5 5 0 0 1-5 5H7a5 5 0 0 1-5-5V11a5 5 0 0 1 5-5Z" fill="#f6efdd" stroke="#071f1c" stroke-width="4"/>
  <path d="M6 10h47v8H6Z" fill="#e0a01e"/>
  <path data-part="portrait-silhouette" d="M10 45c0-7 4-11 10-13a8 8 0 1 1 8 0c6 2 10 6 10 13Z" fill="#071f1c"/>
  <path data-part="question-mark" d="M43 25c0-5 3-8 8-8s8 3 8 7c0 4-2 6-5 8-2 1-3 3-3 5h-6c0-5 2-7 5-9 2-1 3-2 3-4 0-1-1-2-2-2s-2 1-2 3Zm2 15h7v7h-7Z" fill="#e0a01e"/>
  <path data-part="open-case-status" d="M56 44a7 7 0 1 1 0 14 7 7 0 0 1 0-14Z" fill="#a6452a" stroke="#f6efdd" stroke-width="2"/>
</svg>
