<svg xmlns="http://www.w3.org/2000/svg" viewBox="0 0 190 190">
  <defs>
    <linearGradient id="chest" x1="0" y1="0" x2="0" y2="1">
      <stop stop-color="#f8c64b"/>
      <stop offset="1" stop-color="#ae5d1d"/>
    </linearGradient>
  </defs>
  <g transform="translate(5 0)">
    <path data-part="shield" d="M90 5c20 0 41 6 70 19 8 4 13 11 13 21v56c0 37-30 66-83 84-53-18-83-47-83-84V45c0-10 5-17 13-21C49 11 70 5 90 5Z" fill="#fff1d2" stroke="#123b30" stroke-width="7"/>
    <path d="M90 15c18 0 37 5 63 17 6 3 9 7 9 14v53c0 31-25 56-72 73-47-17-72-42-72-73V46c0-7 3-11 9-14 26-12 45-17 63-17Z" fill="#174637" stroke="#e7a72a" stroke-width="4"/>
    <g data-part="pirate-sun">
      <circle cx="90" cy="55" r="25" fill="#f2ad25" stroke="#9a561c" stroke-width="4"/>
      <path data-part="pirate-hat" d="M61 38c8-15 19-22 33-22 15 0 27 7 35 22-22-5-45-5-68 0Z" fill="#102a22"/>
      <path d="M64 39c17-5 35-5 53 0" fill="none" stroke="#fff1d2" stroke-width="4" stroke-linecap="round"/>
      <circle cx="75" cy="55" r="4.5" fill="#102a22"/>
      <path d="M78 42c10 1 20 5 29 11" fill="none" stroke="#102a22" stroke-width="4.5" stroke-linecap="round"/>
      <ellipse data-part="eyepatch" cx="105" cy="56" rx="8" ry="6.5" fill="#102a22"/>
      <path d="M72 70c10 8 21 8 33 0" fill="none" stroke="#102a22" stroke-width="5" stroke-linecap="round"/>
    </g>
    <g data-part="question-mark-left" transform="translate(40 87) rotate(-22)">
      <path d="M-17-10c1-11 9-18 20-18 12 0 20 7 20 17 0 8-5 13-12 17-7 4-9 8-9 15" fill="none" stroke="#0a291f" stroke-width="11" stroke-linecap="round" opacity=".7"/>
      <path d="M-17-12c1-11 9-18 20-18 12 0 20 7 20 17 0 8-5 13-12 17-7 4-9 8-9 15" fill="none" stroke="#fff1d2" stroke-width="7" stroke-linecap="round"/>
      <circle cx="2" cy="32" r="5" fill="#fff1d2" stroke="#0a291f" stroke-width="2"/>
    </g>
    <g data-part="question-mark-right" transform="translate(140 87) rotate(22)">
      <path d="M-17-10c1-11 9-18 20-18 12 0 20 7 20 17 0 8-5 13-12 17-7 4-9 8-9 15" fill="none" stroke="#0a291f" stroke-width="11" stroke-linecap="round" opacity=".7"/>
      <path d="M-17-12c1-11 9-18 20-18 12 0 20 7 20 17 0 8-5 13-12 17-7 4-9 8-9 15" fill="none" stroke="#fff1d2" stroke-width="7" stroke-linecap="round"/>
      <circle cx="2" cy="32" r="5" fill="#fff1d2" stroke="#0a291f" stroke-width="2"/>
    </g>
    <g data-part="treasure-chest">
      <path d="M43 143h94l-9 31H52l-9-31Z" fill="url(#chest)" stroke="#102a22" stroke-width="6" stroke-linejoin="round"/>
      <path d="M49 140c3-18 18-28 41-28s38 10 41 28H49Z" fill="#d88622" stroke="#102a22" stroke-width="6" stroke-linejoin="round"/>
      <path d="M52 140h76" stroke="#ffd667" stroke-width="6"/>
      <path d="M62 146v25M118 146v25" stroke="#714018" stroke-width="5" opacity=".75"/>
      <rect x="80" y="141" width="21" height="23" rx="4" fill="#f8c945" stroke="#102a22" stroke-width="5"/>
      <circle cx="90.5" cy="151" r="3" fill="#102a22"/>
    </g>
  </g>
</svg>
